# xmcd CD database file
#
# Track frame offsets:
#	150
#	15285
#	30229
#	43060
#	58194
#	77236
#	89940
#	105379
#	119721
#	132953
#	146558
#	159804
#	174140
#	187026
#
# Disc length: 2674 seconds
#
# Revision: 0
# Processed by: cddbd v1.5.2PL0 Copyright (c) Steve Scherf et al.
# Submitted via: CDex 1.70beta2
#
DISCID=b40a700e
DTITLE=Buddy Lewis - Songs From The Heartland
DYEAR=2005
DGENRE=Country
TTITLE0=Third Rate Romance
TTITLE1=Right In The Palm Of Your Hand
TTITLE2=Jeanie
TTITLE3=Come Early Morning
TTITLE4=Margarithaville
TTITLE5=True Love
TTITLE6=Louisiana Man
TTITLE7=Mexican Wind
TTITLE8=When I Pulled Into Nashville
TTITLE9=Jilted And Jaded
TTITLE10=Tearin' Up The Highway
TTITLE11=It's Been Rainin' In Houston
TTITLE12=Let Me Know
TTITLE13=Adios My Compadre
EXTD=YEAR: 2005
EXTT0=
EXTT1=
EXTT2=
EXTT3=
EXTT4=
EXTT5=
EXTT6=
EXTT7=
EXTT8=
EXTT9=
EXTT10=
EXTT11=
EXTT12=
EXTT13=
PLAYORDER=
